
<svg width="48" height="48" viewBox="0 0 48 48" xmlns="http://www.w3.org/2000/svg">
  <style>
    .stroke { stroke: white; stroke-width: 2; fill: none; }
    .ghost { fill: white; }
  </style>
  <circle cx="24" cy="24" r="22" class="stroke"/>
  <path class="ghost" d="M24 12c-4.5 0-8 3.6-8 8 0 2 .8 3.8 2 5.2.3.3.3.8.1 1.2-.7 1.2-1.8 2-3 2.3-.6.2-.7 1-.2 1.3 1.2.8 2.5 1.4 3.8 1.8.3.1.6.4.7.7.5 1.6 1.9 2.6 3.6 2.6s3.1-1 3.6-2.6c.1-.3.4-.6.7-.7 1.3-.4 2.6-1 3.8-1.8.5-.3.4-1.1-.2-1.3-1.2-.3-2.3-1.1-3-2.3-.2-.4-.2-.9.1-1.2 1.2-1.4 2-3.2 2-5.2 0-4.4-3.6-8-8-8z"/>
</svg>
